HIERARCHY
ROOT Hips
{
	OFFSET -3.958830 18.904000 13.208200
	CHANNELS 6 Xposition Yposition Zposition Zrotation Yrotation Xrotation 
	JOINT LHipJoint
	{
		OFFSET 0.000000 0.000000 0.000000
		CHANNELS 3 Zrotation Yrotation Xrotation
		JOINT LeftUpLeg
		{
			OFFSET 1.800000 -1.400000 0.085000
			CHANNELS 3 Zrotation Yrotation Xrotation
			JOINT LeftLeg
			{
				OFFSET 2.215000 -6.000000 0.000000
				CHANNELS 3 Zrotation Yrotation Xrotation
				JOINT LeftFoot
				{
					OFFSET 2.500000 -6.900000 0.000000
					CHANNELS 3 Zrotation Yrotation Xrotation
					JOINT LeftToeBase
					{
						OFFSET 0.200000 -0.500000 1.950000
						CHANNELS 3 Zrotation Yrotation Xrotation
						End Site
						{
							OFFSET 0.000000 0.000000 0.000000
						}
					}
				}
			}
		}
	}
	JOINT RHipJoint
	{
		OFFSET 0.000000 0.000000 0.000000
		CHANNELS 3 Zrotation Yrotation Xrotation
		JOINT RightUpLeg
		{
			OFFSET -1.800000 -1.400000 0.085000
			CHANNELS 3 Zrotation Yrotation Xrotation
			JOINT RightLeg
			{
				OFFSET -2.215000 -6.000000 0.000000
				CHANNELS 3 Zrotation Yrotation Xrotation
				JOINT RightFoot
				{
					OFFSET -2.500000 -6.900000 0.000000
					CHANNELS 3 Zrotation Yrotation Xrotation
					JOINT RightToeBase
					{
						OFFSET -0.200000 -0.500000 1.950000
						CHANNELS 3 Zrotation Yrotation Xrotation
						End Site
						{
							OFFSET 0.000000 0.000000 0.000000
						}
					}
				}
			}
		}
	}
	JOINT LowerBack
	{
		OFFSET 0.000000 0.000000 0.000000
		CHANNELS 3 Zrotation Yrotation Xrotation
		JOINT Spine
		{
			OFFSET -0.087000 1.940000 -0.288900
			CHANNELS 3 Zrotation Yrotation Xrotation
			JOINT Spine1
			{
				OFFSET 0.000000 1.950000 0.060000
				CHANNELS 3 Zrotation Yrotation Xrotation
				JOINT Neck
				{
					OFFSET 0.000000 0.000000 0.000000
					CHANNELS 3 Zrotation Yrotation Xrotation
					JOINT Neck1
					{
						OFFSET 0.000000 1.600000 0.340000
						CHANNELS 3 Zrotation Yrotation Xrotation
						JOINT Head
						{
							OFFSET 0.000000 1.667000 -0.240000
							CHANNELS 3 Zrotation Yrotation Xrotation
							End Site
							{
								OFFSET 0.000000 0.000000 0.000000
							}
						}
					}
				}
				JOINT LeftShoulder
				{
					OFFSET 0.000000 0.000000 0.000000
					CHANNELS 3 Zrotation Yrotation Xrotation
					JOINT LeftArm
					{
						OFFSET 2.700000 1.550000 -0.730000
						CHANNELS 3 Zrotation Yrotation Xrotation
						JOINT LeftForeArm
						{
							OFFSET 5.450000 0.000000 0.000000
							CHANNELS 3 Zrotation Yrotation Xrotation
							JOINT LeftHand
							{
								OFFSET 3.450000 0.000000 0.000000
								CHANNELS 3 Zrotation Yrotation Xrotation
								JOINT LeftHandIndex1
								{
									OFFSET 0.750000 0.000000 0.000000
									CHANNELS 3 Zrotation Yrotation Xrotation
									End Site
									{
										OFFSET 0.000000 0.000000 0.000000
									}
								}
							}
						}
					}
				}
				JOINT RightShoulder
				{
					OFFSET 0.000000 0.000000 0.000000
					CHANNELS 3 Zrotation Yrotation Xrotation
					JOINT RightArm
					{
						OFFSET -2.700000 1.550000 -0.730000
						CHANNELS 3 Zrotation Yrotation Xrotation
						JOINT RightForeArm
						{
							OFFSET -5.450000 0.000000 0.000000
							CHANNELS 3 Zrotation Yrotation Xrotation
							JOINT RightHand
							{
								OFFSET -3.450000 0.000000 0.000000
								CHANNELS 3 Zrotation Yrotation Xrotation
								JOINT RightHandIndex1
								{
									OFFSET -0.750000 0.000000 0.000000
									CHANNELS 3 Zrotation Yrotation Xrotation
									End Site
									{
										OFFSET 0.000000 0.000000 0.000000
									}
								}
							}
						}
					}
				}
			}
		}
	}
}
MOTION
Frames: 13
Frame Time: 0.016667
0.645340 16.571720 -1.019950 0.494614 -4.341462 9.054726 -15.028861 11.706608 3.437990 -1.261639 -6.675879 -25.640093 -12.107416 11.072308 33.685907 -0.118493 7.371312 2.378197 -0.168970 -0.627690 -0.202040 18.778976 -9.112087 4.404517 -7.684913 8.044523 -50.216117 2.675721 -7.521184 39.312401 -0.055891 -5.697800 2.565944 -0.166340 0.991870 0.164090 -4.554494 -1.324009 -8.044118 16.966476 -5.005833 9.771877 -3.520761 -3.378720 0.190092 1.475284 -3.051646 -4.004262 -6.349339 4.097618 32.116949 -8.621600 5.071500 10.713710 -24.343576 0.473817 -0.949682 -49.403967 -6.348106 -3.005770 -9.217405 -21.378711 -0.113664 -4.427353 2.822551 0.194470 0.730530 -0.715070 0.222750 20.734888 0.802506 -0.813659 50.102620 10.219044 -3.468431 10.789147 19.297127 0.011220 2.029207 -1.437299 -0.569140 0.322390 0.325850 -0.181630 
0.650770 16.559670 -1.011930 0.481767 -3.878556 8.085030 -15.016826 11.754774 3.415611 -1.113526 -6.624185 -24.952549 -12.000414 11.258053 34.453914 -0.077428 7.489479 2.321219 -0.139360 -0.593640 -0.173630 18.783509 -9.097979 4.446547 -8.285462 8.077558 -50.298755 2.528826 -8.170011 42.474089 -0.194665 -6.243865 2.372999 -0.165710 0.941010 0.154590 -4.570132 -1.426281 -8.144013 17.401702 -5.452680 10.717215 -4.119319 -3.619321 -0.052710 1.726936 -3.283438 -4.276248 -6.955438 4.275129 33.712565 -8.442110 4.829270 9.960350 -25.089039 -0.184828 -0.846416 -48.289217 -6.120081 -3.115710 -8.477703 -20.890297 -0.236155 -4.369598 2.795150 0.238240 0.678670 -0.665000 0.220510 20.920131 1.562939 -0.422420 50.094873 10.076574 -3.696437 10.967240 19.906963 0.130656 2.034685 -1.403061 -0.551350 0.330410 0.309390 -0.186270 
0.658190 16.538440 -0.998790 0.300502 -3.149034 6.033023 -14.991504 11.857805 3.344720 -0.629857 -6.410251 -23.382582 -11.885340 11.654355 35.767807 -0.026736 7.723370 2.205962 -0.071620 -0.519190 -0.119360 18.793100 -9.069393 4.523275 -9.592127 8.196224 -50.094666 2.906802 -9.797308 48.467840 -0.494126 -7.379576 1.982699 -0.149780 0.842950 0.132860 -4.606567 -1.622758 -8.312609 18.373599 -6.349883 12.525897 -5.316956 -4.107448 -0.293948 2.198463 -3.823484 -4.874075 -8.378292 4.874340 37.184441 -8.018980 4.337350 8.306810 -26.506479 -1.595750 -0.537559 -45.967470 -5.560271 -3.311753 -7.264780 -20.008621 -0.438616 -4.249148 2.750112 0.336970 0.577120 -0.572520 0.219710 21.297116 3.225717 0.354111 49.905915 10.024164 -4.040831 11.489459 21.069102 0.383609 2.032182 -1.344670 -0.529720 0.349810 0.278940 -0.202340 
0.660060 16.513590 -0.977450 0.239318 -2.457675 3.740630 -14.984081 11.935790 3.281303 0.015306 -6.231691 -21.852784 -12.022673 12.353792 37.508028 0.075952 8.091870 2.046328 0.010750 -0.428470 -0.045880 18.793214 -9.021271 4.573520 -11.137400 8.308217 -49.603820 2.996859 -11.749095 55.506257 -0.869175 -8.742466 1.530508 -0.127830 0.734950 0.123080 -4.606394 -1.827728 -8.471755 18.913151 -7.074897 14.201912 -6.420610 -4.575446 -0.445240 2.673974 -4.256591 -5.400022 -9.731811 5.480219 40.883725 -7.771040 3.891990 6.735560 -27.848384 -2.667659 -0.347322 -43.327666 -5.227734 -3.262554 -6.350356 -18.769917 -0.545808 -4.131398 2.729269 0.417480 0.477290 -0.473600 0.220990 21.651283 4.471554 1.034442 49.752905 9.871274 -4.432526 12.829311 23.146749 0.829760 2.036049 -1.316747 -0.491010 0.351130 0.231740 -0.213720 
0.659180 16.478400 -0.954550 0.395802 -1.450054 1.814362 -14.993560 11.957981 3.268558 0.457983 -6.307199 -20.931508 -12.042218 13.165946 39.899376 0.196406 8.570287 1.856460 0.077810 -0.349050 0.004420 18.785231 -8.984806 4.552410 -12.809415 8.116841 -48.660075 3.283865 -13.989589 61.773591 -1.226468 -10.039346 1.135076 -0.102360 0.650520 0.110100 -4.577949 -1.978764 -8.588994 18.973365 -7.519318 15.188836 -7.255988 -5.009394 -0.320924 3.089847 -4.395817 -5.839968 -10.443871 5.865120 43.628112 -7.617240 3.526290 5.600220 -28.321913 -3.310494 -0.188654 -41.521626 -5.145095 -3.183407 -5.469003 -18.244187 -0.604835 -4.042892 2.721983 0.470670 0.407660 -0.407970 0.222800 21.328014 5.082256 1.593675 50.133288 9.634837 -4.909888 14.986066 26.394468 1.534825 2.019155 -1.325231 -0.461490 0.346020 0.193040 -0.224680 
0.654740 16.435980 -0.921830 0.470757 -0.804477 0.557668 -14.984923 11.907430 3.250265 0.896940 -6.305141 -20.479945 -12.069399 13.986856 42.043625 0.350551 9.011857 1.697970 0.104510 -0.299990 0.009440 18.801264 -8.996646 4.519514 -13.990771 8.097313 -47.637929 3.122850 -15.896346 67.336705 -1.535080 -11.167815 0.815384 -0.095790 0.608010 0.116530 -4.614493 -1.913084 -8.643674 19.207443 -7.501910 15.151702 -8.363170 -5.150480 -0.045991 3.568046 -4.182367 -6.058429 -10.109719 5.755735 44.919865 -7.575710 3.286970 5.659580 -28.016959 -3.179686 -0.177726 -40.225810 -5.098696 -3.224341 -5.065570 -19.011837 -0.494834 -3.994054 2.754296 0.465220 0.381880 -0.371750 0.232970 20.043253 4.736969 2.027656 51.659723 9.296376 -5.323359 18.057791 30.565959 2.618567 2.011515 -1.387714 -0.421420 0.316830 0.162740 -0.208690 
0.647430 16.391360 -0.885900 0.475198 -0.184725 -0.213382 -14.970835 11.832416 3.247062 1.337057 -6.346554 -20.418734 -12.056845 14.773706 43.982308 0.437034 9.512797 1.562488 0.039770 -0.404000 -0.010010 18.823825 -9.051534 4.432133 -14.641497 8.105575 -46.268852 2.547767 -17.370477 72.018441 -1.740912 -12.079588 0.585424 -0.136980 0.651420 0.090540 -4.672103 -1.769289 -8.636401 19.488036 -7.213484 14.319788 -9.301797 -5.086403 0.622218 3.889260 -3.889050 -6.319756 -9.537165 5.266954 45.010847 -7.864240 2.996280 7.288250 -26.652719 -2.907695 -0.103627 -39.905880 -5.126999 -3.273387 -5.207863 -20.897645 -0.322498 -4.017640 2.726403 0.467120 0.407330 -0.427510 0.213620 17.997884 4.200217 2.611274 53.346031 8.764053 -5.769651 22.439099 35.637093 4.401625 1.971565 -1.446394 -0.475250 0.336450 0.199600 -0.229030 
0.635600 16.356840 -0.842620 0.500243 0.177930 -0.713055 -14.942881 11.795181 3.248158 1.767103 -6.208060 -20.233293 -12.246435 15.444690 45.101205 0.516754 9.889137 1.483410 -0.042770 -0.520040 -0.059710 18.842926 -9.216071 4.261350 -14.610463 8.098155 -44.169207 1.554957 -17.858447 75.002135 -1.839884 -12.595235 0.474836 -0.186120 0.725530 0.077120 -4.744840 -1.525708 -8.556542 19.758223 -6.690323 13.140549 -10.303677 -4.854293 1.238451 4.166461 -3.543658 -6.430523 -8.669653 4.706390 44.235770 -8.005820 2.752220 9.317150 -25.126844 -2.122876 -0.157759 -39.601913 -5.079980 -3.367046 -6.164575 -23.924270 0.105208 -4.055411 2.723697 0.445320 0.456210 -0.496640 0.206930 15.848068 3.176198 3.120449 54.909973 8.230893 -5.815121 27.988897 41.012729 7.079688 1.934012 -1.538723 -0.525460 0.352360 0.241490 -0.231360 
0.618090 16.329480 -0.790920 0.566854 0.534827 -0.983177 -14.905435 11.807049 3.223586 2.064843 -5.894925 -19.745719 -12.305255 15.748511 45.344205 0.522706 10.106061 1.458699 -0.151760 -0.671220 -0.144010 18.858681 -9.493123 4.001167 -14.123247 7.930555 -41.279681 0.513323 -17.521395 76.028648 -1.823463 -12.742920 0.452602 -0.240280 0.845120 0.084830 -4.828005 -1.197968 -8.371863 19.916013 -5.912080 11.491814 -11.012588 -4.455632 2.150851 4.201314 -3.141544 -6.328014 -7.587207 4.142494 42.659634 -7.972080 2.503110 11.353430 -23.304412 -1.093676 -0.266144 -39.605324 -5.370106 -3.263919 -7.965490 -27.902709 0.815641 -4.138808 2.740600 0.416930 0.537250 -0.592600 0.198850 13.916312 1.842647 3.350027 55.970702 8.248804 -4.902400 34.499329 44.936547 10.445690 1.886741 -1.632647 -0.591890 0.375210 0.321290 -0.230850 
0.591410 16.313120 -0.744730 0.826501 0.955952 -0.986024 -14.888366 11.853546 3.223152 2.000783 -5.698043 -19.444720 -12.080897 15.746578 45.410732 0.522808 10.211144 1.473829 -0.266790 -0.809030 -0.231630 18.850600 -9.815549 3.670350 -13.330470 7.466549 -38.048621 -0.660515 -16.395411 75.284348 -1.696615 -12.544414 0.526190 -0.283620 0.969460 0.085450 -4.848330 -0.897112 -8.133708 19.340158 -5.009568 9.704772 -11.115158 -4.014078 3.135936 4.007740 -2.670157 -6.025692 -6.422359 3.353708 40.425624 -8.189250 2.317760 13.311920 -21.298126 0.276945 -0.516576 -39.661067 -6.115123 -2.725071 -10.828250 -31.502151 1.983265 -4.248277 2.765155 0.349580 0.635680 -0.698580 0.187000 12.350959 0.119403 3.345214 56.450553 8.236273 -3.613353 41.167142 48.865079 14.538503 1.846200 -1.731877 -0.650370 0.399390 0.394750 -0.221400 
0.558690 16.312640 -0.701630 1.273588 1.260690 -0.962602 -14.899415 11.948222 3.256990 1.867135 -5.571474 -19.067633 -12.046021 15.743984 45.320049 0.536864 10.291757 1.504477 -0.339280 -0.898460 -0.289480 18.808768 -10.161674 3.275978 -12.269092 6.707016 -34.546683 -2.033087 -14.472084 72.645577 -1.490781 -11.992244 0.692814 -0.305980 1.083020 0.098920 -4.777878 -0.672274 -7.861581 17.909324 -4.068958 7.992964 -10.712756 -3.533791 4.173923 3.752975 -2.094025 -5.656969 -5.141989 2.652113 38.256937 -8.412370 2.332340 14.952590 -19.270273 1.739352 -0.828405 -39.572981 -7.130409 -1.825526 -14.495758 -34.502336 3.571912 -4.342065 2.827377 0.277320 0.729670 -0.787480 0.196300 10.995223 -1.725583 3.222566 56.454257 8.149979 -2.010143 48.492444 52.541490 19.488173 1.816107 -1.857107 -0.690100 0.412060 0.431490 -0.204120 
0.520420 16.331260 -0.665210 1.800384 1.401644 -1.108052 -14.933538 12.123348 3.307632 1.642589 -5.433523 -18.550667 -11.841690 15.552766 45.082292 0.505767 10.258652 1.532013 -0.363880 -0.915590 -0.326300 18.731146 -10.506632 2.865399 -11.238028 5.730919 -30.677051 -3.046823 -12.448652 68.267822 -1.238908 -11.168304 0.941212 -0.290600 1.135880 0.099380 -4.619124 -0.589147 -7.593777 15.947171 -3.152450 6.742728 -9.785351 -2.935785 5.225791 3.458014 -1.705916 -5.518385 -4.399422 2.177593 36.900804 -8.706190 2.397190 15.448770 -17.076050 2.962989 -1.038428 -39.910853 -8.200123 -0.866068 -17.865299 -37.320246 5.248495 -4.389568 2.894813 0.230670 0.787350 -0.841500 0.202180 9.608059 -3.043730 3.273108 56.007308 7.873039 -0.577427 56.102591 56.359825 25.236326 1.785322 -1.961795 -0.712880 0.417570 0.448740 -0.199350 
0.481760 16.366250 -0.635560 2.030800 1.392149 -0.977303 -14.950413 12.228311 3.348667 1.566398 -5.371322 -18.479146 -11.679931 15.350148 44.780832 0.485602 10.236181 1.580420 -0.397260 -0.953300 -0.382030 18.684819 -10.802629 2.522309 -10.158370 4.852664 -27.318670 -3.698949 -10.716918 63.291290 -0.973956 -10.309253 1.217420 -0.285540 1.231680 0.111490 -4.528020 -0.429262 -7.320039 14.681006 -2.278728 5.309849 -9.238811 -2.287372 6.295192 3.148379 -1.396290 -5.392012 -3.719770 1.898328 35.397006 -8.352840 2.163020 16.465580 -15.071630 3.880210 -1.129712 -39.998245 -9.188716 0.118131 -21.282853 -40.034460 7.118725 -4.446197 2.984233 0.171000 0.861330 -0.913550 0.228270 8.373710 -4.037220 3.328621 55.773129 7.751411 0.826103 62.442288 58.779542 30.100990 1.765712 -2.048450 -0.739740 0.430250 0.467620 -0.176020 
